<?xml version="1.0" encoding="UTF-8" standalone="no"?>
<!-- Created with Inkscape (http://www.inkscape.org/) -->

<svg
   width="192"
   height="192"
   id="svg2"
   version="1.1"
   inkscape:version="1.2.2 (b0a8486541, 2022-12-01)"
   sodipodi:docname="delete.svg"
   xmlns:inkscape="http://www.inkscape.org/namespaces/inkscape"
   xmlns:sodipodi="http://sodipodi.sourceforge.net/DTD/sodipodi-0.dtd"
   xmlns="http://www.w3.org/2000/svg"
   xmlns:svg="http://www.w3.org/2000/svg"
   xmlns:rdf="http://www.w3.org/1999/02/22-rdf-syntax-ns#"
   xmlns:cc="http://creativecommons.org/ns#"
   xmlns:dc="http://purl.org/dc/elements/1.1/">
  <defs
     id="defs4" />
  <sodipodi:namedview
     id="base"
     pagecolor="#ffffff"
     bordercolor="#666666"
     borderopacity="1.0"
     inkscape:pageopacity="0.0"
     inkscape:pageshadow="2"
     inkscape:zoom="4.0000001"
     inkscape:cx="80.999998"
     inkscape:cy="89.624998"
     inkscape:document-units="px"
     inkscape:current-layer="layer1"
     showgrid="false"
     inkscape:window-width="2114"
     inkscape:window-height="1503"
     inkscape:window-x="353"
     inkscape:window-y="485"
     inkscape:window-maximized="0"
     fit-margin-top="0"
     fit-margin-left="0"
     fit-margin-right="0"
     fit-margin-bottom="0"
     inkscape:showpageshadow="2"
     inkscape:pagecheckerboard="0"
     inkscape:deskcolor="#d1d1d1" />
  <metadata
     id="metadata7">
    <rdf:RDF>
      <cc:Work
         rdf:about="">
        <dc:format>image/svg+xml</dc:format>
        <dc:type
           rdf:resource="http://purl.org/dc/dcmitype/StillImage" />
      </cc:Work>
    </rdf:RDF>
  </metadata>
  <g
     inkscape:label="Layer 1"
     inkscape:groupmode="layer"
     id="layer1"
     transform="translate(4.7866896,7.5336323)">
    <g
       id="g398"
       style="fill:#000000">
      <g
         id="g393"
         transform="matrix(1.1207088,0,0,1.0793409,-5.3564248,-3.9305511)"
         style="fill:#000000">
        <path
           sodipodi:nodetypes="cscscccsc"
           inkscape:connector-curvature="0"
           id="path4141"
           d="m 10.039046,42.189082 c 0,0 8.301681,-5.469928 16.852493,-14.17458 8.972994,-9.134414 8.054935,-19.9219519 8.054935,-19.9219519 0,0 45.753073,52.7466699 55.922465,65.4169959 C 101.03834,86.179857 162.9056,142.8417 162.9056,142.8417 l -15.23416,4.9715 -8.26309,13.32875 c 0,0 -32.98622,-43.72828 -58.409703,-65.827675 C 55.575155,73.21488 10.039046,42.189082 10.039046,42.189082 Z"
           style="fill:#000000;fill-opacity:1;fill-rule:evenodd;stroke:none;stroke-width:0.419839px;stroke-linecap:butt;stroke-linejoin:miter;stroke-opacity:1" />
        <path
           sodipodi:nodetypes="csscccsccc"
           inkscape:connector-curvature="0"
           id="path4143"
           d="m 8.2937091,151.07503 c 0,0 26.8002089,-15.71136 50.2151399,-38.03805 C 81.923771,90.710286 118.22446,42.407927 122.26513,33.101934 130.16416,14.909823 137.49893,4.4355757 137.49893,4.4355757 L 145.539,22.48987 159.22122,32.826297 c 0,0 -64.842467,68.719733 -79.272201,82.967043 C 52.550816,142.84521 38.197107,164.5813 38.197107,164.5813 L 24.938051,154.24486 Z"
           style="fill:#000000;fill-opacity:1;fill-rule:evenodd;stroke:none;stroke-width:0.394358px;stroke-linecap:butt;stroke-linejoin:miter;stroke-opacity:1" />
      </g>
    </g>
  </g>
</svg>
