<?xml version="1.0" encoding="UTF-8" standalone="no"?>
<!-- Generator: Adobe Illustrator 9.0, SVG Export Plug-In  
-->

<svg
   width="48pt"
   height="48pt"
   viewBox="0 0 48 48"
   xml:space="preserve"
   id="svg2"
   version="1.1"
   inkscape:version="1.1.2 (0a00cf5339, 2022-02-04)"
   sodipodi:docname="switch_edit.svg"
   xmlns:inkscape="http://www.inkscape.org/namespaces/inkscape"
   xmlns:sodipodi="http://sodipodi.sourceforge.net/DTD/sodipodi-0.dtd"
   xmlns="http://www.w3.org/2000/svg"
   xmlns:svg="http://www.w3.org/2000/svg"
   xmlns:rdf="http://www.w3.org/1999/02/22-rdf-syntax-ns#"
   xmlns:cc="http://creativecommons.org/ns#"
   xmlns:dc="http://purl.org/dc/elements/1.1/"><metadata
     id="metadata28"><rdf:RDF><cc:Work
         rdf:about=""><dc:format>image/svg+xml</dc:format><dc:type
           rdf:resource="http://purl.org/dc/dcmitype/StillImage" /></cc:Work></rdf:RDF></metadata><defs
     id="defs26" /><sodipodi:namedview
     pagecolor="#ffffff"
     bordercolor="#666666"
     borderopacity="1"
     objecttolerance="10"
     gridtolerance="10"
     guidetolerance="10"
     inkscape:pageopacity="0"
     inkscape:pageshadow="2"
     inkscape:window-width="2621"
     inkscape:window-height="1938"
     id="namedview24"
     showgrid="false"
     inkscape:zoom="15.998291"
     inkscape:cx="31.034565"
     inkscape:cy="26.346564"
     inkscape:window-x="405"
     inkscape:window-y="103"
     inkscape:window-maximized="0"
     inkscape:current-layer="svg2"
     inkscape:pagecheckerboard="0"
     inkscape:document-units="pt" /><path
     style="clip-rule:nonzero;fill:none;fill-rule:nonzero;stroke:#000000;stroke-width:4.00743;stroke-linejoin:round;stroke-miterlimit:4;stroke-dasharray:none"
     d="M 42.1468,15.502944 V 44.121519 H 6.9484047 V 3.5553846 H 30.460377 L 42.007676,15.364018 Z"
     id="path11"
     inkscape:connector-curvature="0" /><g
     id="g15"
     transform="matrix(1.1110336,0,0,1.0719226,3.1534272,5.0201619)"
     style="clip-rule:nonzero;fill:#ffffff;fill-rule:nonzero;stroke:none;stroke-miterlimit:4" /><path
     style="fill:#ffffff;stroke:#000000;stroke-width:0.75px;stroke-linecap:butt;stroke-linejoin:miter;stroke-opacity:1"
     d="m 12.743405,20.553709 c 0,0 3.54764,-8.233967 10.005069,-8.321257 8.32582,-0.112547 10.92373,5.69103 10.92373,5.69103 l 2.322177,-2.325696 0.612357,9.635062 -9.272938,-0.985952 2.612162,-2.641592 c 0,0 -0.327293,-2.019677 -1.852526,-3.275511 -1.89961,-1.564085 -5.097375,-2.352297 -7.54017,-1.089976 -1.542127,0.796898 -3.506192,5.169853 -3.506192,5.169853 z"
     id="path1293"
     sodipodi:nodetypes="cscccccsscc" /><path
     style="fill:#ffffff;stroke:#000000;stroke-width:0.75px;stroke-linecap:butt;stroke-linejoin:miter;stroke-opacity:1"
     d="m 35.946445,30.574927 c 0,0 -3.54764,8.233967 -10.005069,8.321257 -8.32582,0.112547 -10.92373,-5.69103 -10.92373,-5.69103 l -2.322177,2.325696 -0.612357,-9.635062 9.272938,0.985952 -2.612162,2.641592 c 0,0 0.327293,2.019677 1.852526,3.275511 1.89961,1.564085 5.097375,2.352297 7.54017,1.089976 1.542127,-0.796898 3.506192,-5.169853 3.506192,-5.169853 z"
     id="path4804"
     sodipodi:nodetypes="cscccccsscc" /></svg>
